<?xml version="1.0" encoding="UTF-8"?>
<!DOCTYPE svg PUBLIC "-//W3C//DTD SVG 1.1//EN" "http://www.w3.org/Graphics/SVG/1.1/DTD/svg11.dtd">
<!-- Creator: CorelDRAW 2019 (64-Bit) -->
<svg xmlns="http://www.w3.org/2000/svg" xml:space="preserve" width="40px" height="40px" version="1.1" style="shape-rendering:geometricPrecision; text-rendering:geometricPrecision; image-rendering:optimizeQuality; fill-rule:evenodd; clip-rule:evenodd"
viewBox="0 0 40 40"
 xmlns:xlink="http://www.w3.org/1999/xlink"
 xmlns:xodm="http://www.corel.com/coreldraw/odm/2003">
 <defs>
  <style type="text/css">
   <![CDATA[
    .fil0 {fill:none}
    .fil1 {fill:#ED3851;fill-rule:nonzero}
   ]]>
  </style>
 </defs>
 <g id="Слой_x0020_1">
  <metadata id="CorelCorpID_0Corel-Layer"/>
  <rect class="fil0" x="-0.02" y="0.02" width="40" height="40"/>
  <g id="chat.svg">
   <g>
    <g>
     <path class="fil1" d="M23.63 7.87l-14.57 0c-0.67,0 -1.22,0.55 -1.22,1.22 0,0.67 0.55,1.21 1.22,1.21l14.57 0c0.67,0 1.21,-0.54 1.21,-1.21 0,-0.67 -0.54,-1.22 -1.21,-1.22z"/>
    </g>
   </g>
   <g>
    <g>
     <path class="fil1" d="M18.77 12.73l-9.71 0c-0.67,0 -1.22,0.54 -1.22,1.21 0,0.67 0.55,1.22 1.22,1.22l9.71 0c0.67,0 1.21,-0.55 1.21,-1.22 0,-0.67 -0.54,-1.21 -1.21,-1.21z"/>
    </g>
   </g>
   <g>
    <g>
     <path class="fil1" d="M27.27 0.59l-21.86 0c-2.68,0 -4.86,2.17 -4.86,4.85l0 24.29c0,0.47 0.28,0.9 0.7,1.1 0.17,0.08 0.34,0.11 0.52,0.11 0.28,0 0.56,-0.09 0.78,-0.28l6.95 -5.79 17.77 0c2.68,0 4.86,-2.18 4.86,-4.85l0 -14.58c0,-2.68 -2.18,-4.85 -4.86,-4.85zm2.43 19.43c0,1.33 -1.09,2.42 -2.43,2.42l-18.21 0c-0.29,0 -0.56,0.1 -0.78,0.29l-5.3 4.41 0 -21.7c0,-1.34 1.09,-2.43 2.43,-2.43l21.86 0c1.34,0 2.43,1.09 2.43,2.43l0 14.58z"/>
    </g>
   </g>
   <g>
    <g>
     <path class="fil1" d="M34.56 10.3c-0.67,0 -1.22,0.54 -1.22,1.21 0,0.67 0.55,1.22 1.22,1.22 1.34,0 2.43,1.09 2.43,2.43l0 20.54 -4.1 -3.28c-0.22,-0.17 -0.49,-0.26 -0.76,-0.26l-17 0c-1.34,0 -2.43,-1.09 -2.43,-2.43l0 -1.21c0,-0.67 -0.55,-1.22 -1.22,-1.22 -0.67,0 -1.21,0.55 -1.21,1.22l0 1.21c0,2.68 2.18,4.86 4.86,4.86l16.57 0 5.74 4.59c0.22,0.18 0.49,0.27 0.76,0.27 0.18,0 0.36,-0.04 0.53,-0.12 0.42,-0.21 0.68,-0.63 0.68,-1.1l0 -23.07c0,-2.68 -2.17,-4.86 -4.85,-4.86z"/>
    </g>
   </g>
  </g>
 </g>
</svg>
