<?xml version="1.0" encoding="UTF-8"?>
<!DOCTYPE svg PUBLIC "-//W3C//DTD SVG 1.1//EN" "http://www.w3.org/Graphics/SVG/1.1/DTD/svg11.dtd">
<!-- Creator: CorelDRAW 2019 (64-Bit) -->
<svg xmlns="http://www.w3.org/2000/svg" xml:space="preserve" width="40px" height="40px" version="1.1" style="shape-rendering:geometricPrecision; text-rendering:geometricPrecision; image-rendering:optimizeQuality; fill-rule:evenodd; clip-rule:evenodd"
viewBox="0 0 40 40"
 xmlns:xlink="http://www.w3.org/1999/xlink"
 xmlns:xodm="http://www.corel.com/coreldraw/odm/2003">
 <defs>
  <style type="text/css">
   <![CDATA[
    .fil0 {fill:none}
    .fil1 {fill:#ED3851;fill-rule:nonzero}
   ]]>
  </style>
 </defs>
 <g id="Слой_x0020_1">
  <metadata id="CorelCorpID_0Corel-Layer"/>
  <rect class="fil0" x="-0.02" y="0.02" width="40" height="40"/>
  <g id="like.svg">
   <g>
    <g>
     <path class="fil1" d="M29.09 2.86c-2.11,0 -4.04,0.67 -5.74,1.99 -1.64,1.26 -2.72,2.87 -3.37,4.04 -0.64,-1.17 -1.72,-2.78 -3.36,-4.04 -1.7,-1.32 -3.63,-1.99 -5.74,-1.99 -5.89,0 -10.33,4.82 -10.33,11.2 0,6.89 5.54,11.61 13.92,18.75 1.43,1.22 3.04,2.59 4.72,4.06 0.22,0.19 0.5,0.3 0.79,0.3 0.3,0 0.58,-0.11 0.8,-0.3 1.68,-1.47 3.29,-2.84 4.72,-4.06 8.38,-7.14 13.91,-11.86 13.91,-18.75 0,-6.38 -4.43,-11.2 -10.32,-11.2z"/>
    </g>
   </g>
   <g>
   </g>
   <g>
   </g>
   <g>
   </g>
   <g>
   </g>
   <g>
   </g>
   <g>
   </g>
   <g>
   </g>
   <g>
   </g>
   <g>
   </g>
   <g>
   </g>
   <g>
   </g>
   <g>
   </g>
   <g>
   </g>
   <g>
   </g>
   <g>
   </g>
  </g>
 </g>
</svg>
