<?xml version="1.0" encoding="UTF-8"?>
<!DOCTYPE svg PUBLIC "-//W3C//DTD SVG 1.1//EN" "http://www.w3.org/Graphics/SVG/1.1/DTD/svg11.dtd">
<!-- Creator: CorelDRAW 2019 (64-Bit) -->
<svg xmlns="http://www.w3.org/2000/svg" xml:space="preserve" width="40px" height="40px" version="1.1" style="shape-rendering:geometricPrecision; text-rendering:geometricPrecision; image-rendering:optimizeQuality; fill-rule:evenodd; clip-rule:evenodd"
viewBox="0 0 40 40"
 xmlns:xlink="http://www.w3.org/1999/xlink"
 xmlns:xodm="http://www.corel.com/coreldraw/odm/2003">
 <defs>
  <style type="text/css">
   <![CDATA[
    .fil0 {fill:none}
    .fil1 {fill:#ED3851;fill-rule:nonzero}
   ]]>
  </style>
 </defs>
 <g id="Слой_x0020_1">
  <metadata id="CorelCorpID_0Corel-Layer"/>
  <rect class="fil0" x="-0.02" y="0.02" width="40" height="40"/>
  <g id="audience.svg">
   <g>
    <g>
     <path class="fil1" d="M24.75 22.83c-0.98,-0.54 -2.1,-0.84 -3.29,-0.84l-2.83 0c-1.23,0 -2.38,0.32 -3.37,0.88 -2.09,1.18 -3.51,3.42 -3.51,6l0 2.12 16.58 0 0 -2.12c0,-2.61 -1.45,-4.88 -3.58,-6.04z"/>
    </g>
   </g>
   <g>
    <g>
     <path class="fil1" d="M32.56 20.11l-2.35 0c-1.38,0 -2.66,0.4 -3.73,1.1 0.52,0.34 1,0.74 1.45,1.18 1.73,1.73 2.68,4.03 2.68,6.48l0 0.99 8.8 0 0 -2.9c0,-3.78 -3.07,-6.85 -6.85,-6.85z"/>
    </g>
   </g>
   <g>
    <g>
     <path class="fil1" d="M9.76 20.11l-2.35 0c-3.78,0 -6.86,3.07 -6.86,6.85l0 2.9 8.93 0 0 -0.99c0,-2.45 0.95,-4.75 2.68,-6.48 0.43,-0.43 0.89,-0.81 1.39,-1.14 -1.09,-0.72 -2.39,-1.14 -3.79,-1.14z"/>
    </g>
   </g>
   <g>
    <g>
     <path class="fil1" d="M31.38 9.8c-0.01,0 -0.02,0 -0.04,0 -2.54,0.02 -4.6,2.22 -4.57,4.91 0.02,2.67 2.09,4.83 4.62,4.83 0.01,0 0.02,0 0.03,0 1.25,-0.01 2.42,-0.54 3.29,-1.48 0.84,-0.93 1.3,-2.14 1.29,-3.43 -0.02,-2.67 -2.09,-4.83 -4.62,-4.83z"/>
    </g>
   </g>
   <g>
    <g>
     <path class="fil1" d="M8.58 9.8c-0.01,0 -0.02,0 -0.04,0 -2.54,0.02 -4.6,2.22 -4.57,4.91 0.02,2.67 2.09,4.83 4.62,4.83 0.01,0 0.02,0 0.04,0 1.24,-0.01 2.41,-0.54 3.28,-1.48 0.84,-0.93 1.3,-2.14 1.29,-3.43 -0.02,-2.67 -2.09,-4.83 -4.62,-4.83z"/>
    </g>
   </g>
   <g>
    <g>
     <path class="fil1" d="M20.04 9.04c-2.93,0 -5.32,2.53 -5.32,5.63 0,2.24 1.25,4.18 3.05,5.09 0.69,0.34 1.46,0.54 2.27,0.54 0.82,0 1.59,-0.2 2.28,-0.54 1.8,-0.91 3.05,-2.85 3.05,-5.09 0,-3.1 -2.39,-5.63 -5.33,-5.63z"/>
    </g>
   </g>
  </g>
 </g>
</svg>
