<?xml version="1.0" encoding="UTF-8"?>
<!DOCTYPE svg PUBLIC "-//W3C//DTD SVG 1.1//EN" "http://www.w3.org/Graphics/SVG/1.1/DTD/svg11.dtd">
<!-- Creator: CorelDRAW 2019 (64-Bit) -->
<svg xmlns="http://www.w3.org/2000/svg" xml:space="preserve" width="40px" height="40px" version="1.1" style="shape-rendering:geometricPrecision; text-rendering:geometricPrecision; image-rendering:optimizeQuality; fill-rule:evenodd; clip-rule:evenodd"
viewBox="0 0 40 40"
 xmlns:xlink="http://www.w3.org/1999/xlink"
 xmlns:xodm="http://www.corel.com/coreldraw/odm/2003">
 <defs>
  <style type="text/css">
   <![CDATA[
    .fil0 {fill:none}
    .fil1 {fill:white;fill-rule:nonzero}
   ]]>
  </style>
 </defs>
 <g id="Слой_x0020_1">
  <metadata id="CorelCorpID_0Corel-Layer"/>
  <rect class="fil0" x="-0.02" y="0.02" width="40" height="40"/>
  <g id="user.svg">
   <path class="fil1" d="M19.74 19.3c2.57,0 4.8,-0.92 6.62,-2.74 1.82,-1.82 2.74,-4.04 2.74,-6.62 0,-2.57 -0.92,-4.79 -2.74,-6.61 -1.82,-1.82 -4.05,-2.74 -6.62,-2.74 -2.57,0 -4.8,0.92 -6.62,2.74 -1.82,1.82 -2.74,4.04 -2.74,6.61 0,2.58 0.92,4.8 2.74,6.62 1.82,1.82 4.05,2.74 6.62,2.74l0 0zm0 0z"/>
   <path class="fil1" d="M36.12 30.47c-0.06,-0.76 -0.16,-1.59 -0.32,-2.46 -0.16,-0.88 -0.36,-1.71 -0.6,-2.47 -0.25,-0.78 -0.59,-1.56 -1.02,-2.3 -0.44,-0.77 -0.95,-1.44 -1.53,-1.99 -0.6,-0.58 -1.34,-1.05 -2.2,-1.39 -0.85,-0.33 -1.79,-0.5 -2.8,-0.5 -0.4,0 -0.78,0.16 -1.52,0.64 -0.46,0.3 -0.99,0.64 -1.59,1.02 -0.51,0.33 -1.2,0.63 -2.05,0.91 -0.83,0.27 -1.67,0.4 -2.51,0.4 -0.83,0 -1.67,-0.13 -2.5,-0.4 -0.86,-0.28 -1.54,-0.58 -2.05,-0.91 -0.59,-0.37 -1.13,-0.72 -1.59,-1.02 -0.74,-0.48 -1.12,-0.64 -1.52,-0.64 -1.01,0 -1.95,0.17 -2.81,0.5 -0.85,0.34 -1.59,0.81 -2.19,1.39 -0.58,0.55 -1.1,1.22 -1.53,1.99 -0.43,0.74 -0.77,1.52 -1.02,2.3 -0.24,0.76 -0.45,1.59 -0.6,2.47 -0.16,0.87 -0.27,1.7 -0.32,2.46 -0.05,0.74 -0.08,1.51 -0.08,2.29 0,2.03 0.65,3.67 1.92,4.88 1.26,1.2 2.92,1.81 4.94,1.81l18.71 0c2.02,0 3.68,-0.61 4.94,-1.81 1.27,-1.21 1.92,-2.85 1.92,-4.88 -0.01,-0.78 -0.03,-1.55 -0.08,-2.29zm0 0z"/>
  </g>
 </g>
</svg>
